<?xml version="1.0" encoding="utf-8"?>
<!-- Generator: Adobe Illustrator 28.4.1, SVG Export Plug-In . SVG Version: 6.00 Build 0)  -->
<svg version="1.0" id="katman_1" xmlns="http://www.w3.org/2000/svg" xmlns:xlink="http://www.w3.org/1999/xlink" x="0px" y="0px"
	 viewBox="0 0 760 536" style="enable-background:new 0 0 760 536;" xml:space="preserve">
<style type="text/css">
	.st0{clip-path:url(#SVGID_00000101102940098641796930000003722077677808007574_);fill:#FFFFFF;}
	.st1{clip-path:url(#SVGID_00000101102940098641796930000003722077677808007574_);fill:#38A5CC;}
	.st2{clip-path:url(#SVGID_00000101102940098641796930000003722077677808007574_);fill:#7EC6DE;}
	.st3{clip-path:url(#SVGID_00000101102940098641796930000003722077677808007574_);fill:#36687F;}
	.st4{clip-path:url(#SVGID_00000101102940098641796930000003722077677808007574_);fill:#010101;}
</style>
<g>
	<defs>
		<rect id="SVGID_1_" x="60" y="28" width="640" height="480"/>
	</defs>
	<clipPath id="SVGID_00000031172357152873194220000008478187978976585115_">
		<use xlink:href="#SVGID_1_"  style="overflow:visible;"/>
	</clipPath>
	<path style="clip-path:url(#SVGID_00000031172357152873194220000008478187978976585115_);fill:#FFFFFF;" d="M172.5,189.68
		c11.8-0.2,23.6-0.01,35.41-0.09c7.67,29.57,14.76,59.28,22.47,88.82c8.45-29.45,15.61-59.27,23.76-88.81
		c11.42,0.05,22.83-0.12,34.24,0.13c0,36.07-0.01,72.13,0,108.21c-0.07,1.24-0.22,2.5-0.43,3.75c-8.8-0.16-17.61,0.03-26.41-0.12
		c-0.02-17.25-0.05-34.5-0.01-51.75c-0.04-6.29,0.14-12.59-0.4-18.86c-5.7,23.68-12.23,47.18-18.47,70.72
		c-8.71-0.11-17.42-0.01-26.12-0.08c-5.57-20.69-10.92-41.43-16.41-62.14c-1.16-3.78-2.06-7.64-2.36-11.6
		c-0.48,3.12-1.12,6.23-1.1,9.4c-0.05,21.44,0.14,42.9-0.07,64.34c-8.04,0.03-16.07,0.05-24.09-0.03
		C172.48,264.27,172.52,226.97,172.5,189.68"/>
	<path style="clip-path:url(#SVGID_00000031172357152873194220000008478187978976585115_);fill:#38A5CC;" d="M127.01,144.48
		c62.05,0.03,124.1,0.02,186.15,0.01c3.5,0.07,7.07-0.27,10.53,0.46c4.45,1.57,8.04,5.23,9.74,9.62
		c0.55,63.95,0.29,127.91,0.27,191.87c-68.86,0.18-137.71,0.07-206.56,0.04C126.94,279.16,127.21,211.82,127.01,144.48
		 M172.5,189.68c0.02,37.29-0.02,74.59,0.01,111.88c8.03,0.08,16.05,0.06,24.09,0.03c0.21-21.45,0.02-42.9,0.07-64.34
		c-0.02-3.17,0.62-6.28,1.1-9.4c0.29,3.96,1.19,7.82,2.36,11.6c5.49,20.7,10.84,41.44,16.41,62.14c8.71,0.07,17.42-0.03,26.12,0.08
		c6.24-23.54,12.77-47.03,18.47-70.72c0.53,6.27,0.36,12.57,0.4,18.86c-0.04,17.25-0.01,34.51,0.01,51.75
		c8.79,0.15,17.6-0.04,26.41,0.12c0.21-1.24,0.35-2.5,0.43-3.75c-0.01-36.08,0-72.14,0-108.21c-11.42-0.25-22.83-0.07-34.24-0.13
		c-8.14,29.55-15.31,59.36-23.76,88.81c-7.71-29.54-14.8-59.26-22.47-88.82C196.1,189.67,184.29,189.48,172.5,189.68"/>
	<path style="clip-path:url(#SVGID_00000031172357152873194220000008478187978976585115_);fill:#7EC6DE;" d="M83.34,170.67
		c14.62-8.61,29.02-17.62,43.67-26.19c0.2,67.34-0.07,134.67,0.14,202c-6.66,4.11-13.44,7.99-20.04,12.17
		c-7.95,4.63-15.64,9.72-23.78,14.02C83.19,305.34,83.18,238,83.34,170.67"/>
	<path style="clip-path:url(#SVGID_00000031172357152873194220000008478187978976585115_);fill:#36687F;" d="M333.44,154.57
		c0.76,11.73,0.1,23.52,0.37,35.27c6.61,0.05,13.24,0.13,19.86,0.01c0.2,67.22,0.12,134.45,0.04,201.68
		c-77.03-0.08-154.06-0.02-231.07-0.03c-5.53,0.16-11.08-2.72-13.82-7.59c-1.73-2.87-1.72-6.34-1.74-9.58
		c0.05-5.23,0-10.46,0.02-15.68c6.6-4.19,13.38-8.06,20.04-12.17c68.86,0.03,137.71,0.14,206.56-0.04
		C333.74,282.48,334,218.52,333.44,154.57"/>
	<path style="clip-path:url(#SVGID_00000031172357152873194220000008478187978976585115_);fill:#010101;" d="M418.33,205.06
		c6.45,0.12,12.91-0.31,19.35,0.27c3.61,12.5,8.43,24.63,12.5,37c2.07,6.58,4.91,12.95,6.45,19.69
		c7.04-18.89,13.61-37.96,20.36-56.94c6-0.02,11.99-0.01,17.99-0.01c-0.06,26.96,0.03,53.93-0.04,80.89
		c-4.64-0.03-9.27-0.04-13.91-0.02c-0.1-19.59,0.16-39.17-0.12-58.75c-0.48,1.58-0.97,3.15-1.51,4.72
		c-1.29,3.58-2.66,7.13-3.85,10.74c-3.76,10.59-7.61,21.14-11.31,31.75c-5.17,0.01-10.35-0.03-15.52,0.04
		c-4.09-11.65-8.2-23.28-12.34-34.9c-1.46-4.51-3.51-8.85-4.24-13.57c-0.69,5.14-0.42,10.33-0.46,15.51
		c0,14.81-0.02,29.62,0.01,44.43c-4.45,0.05-8.89,0.02-13.32,0.04C418.31,258.97,418.35,232.01,418.33,205.06"/>
	<path style="clip-path:url(#SVGID_00000031172357152873194220000008478187978976585115_);fill:#010101;" d="M511.06,228.89
		c6.18-2.99,12.71-5.78,19.69-5.88c6.77-0.39,14.04-0.09,19.81,3.94c5.39,3.62,7.81,10.27,7.86,16.56
		c0.01,14.13-0.01,28.27,0.01,42.4c-3.78,0.03-7.55,0.02-11.31,0.01c-0.47-2.05-0.99-4.09-1.52-6.11c-0.18,0.41-0.54,1.25-0.72,1.65
		c-6.78,5.54-16.02,7.2-24.43,5.04c-6.23-1.87-11.86-6.87-12.91-13.5c-0.37-3.56-0.38-7.18,0.09-10.72
		c1.33-6.43,7.1-10.86,13.14-12.58c7.52-2.32,15.46-1.46,23.19-1.62c0.2-4.71,0.49-10.99-4.65-13.27
		c-8.11-2.79-16.72,0.25-24.24,3.45C513.81,235.08,511.86,232.21,511.06,228.89 M521.92,264.31c-0.14,3.42-1.01,7.83,2.09,10.27
		c3.1,2.7,7.48,2.03,11.25,1.68c3.23-1.13,6.24-2.85,8.7-5.26c-0.01-4.55-0.02-9.1,0.02-13.64c-4.74,0.1-9.5-0.3-14.21,0.27
		C526.21,258.14,522.37,260.45,521.92,264.31"/>
	<path style="clip-path:url(#SVGID_00000031172357152873194220000008478187978976585115_);fill:#010101;" d="M643.88,223.48
		c5.6-0.72,11.26-0.72,16.87-0.08c4.21,1.31,8.58,2.98,11.41,6.56c3.46,4.02,4.65,9.5,4.62,14.69c-0.01,13.75-0.02,27.51-0.01,41.26
		c-3.79,0.01-7.57,0.02-11.34,0.01c-0.46-2-0.97-3.99-1.5-5.97c-0.21,0.38-0.64,1.12-0.86,1.5c-9.8,8.3-27.28,8.52-35.01-2.68
		c-3.5-5.85-2.85-13.28-1.25-19.63c2.62-4.57,6.99-7.95,12.06-9.39c7.57-2.4,15.59-1.54,23.4-1.66c0.13-4.54,0.58-10.4-4.05-12.99
		c-8.26-3.49-17.08,0.21-24.94,2.98c-1.07-3.18-3.4-5.86-3.87-9.24C634.03,226.55,638.85,224.66,643.88,223.48 M643.05,259.66
		c-4.01,2.83-2.88,8.18-2.77,12.37c1.33,1.95,3,3.8,5.43,4.29c5.85,1.11,12.47-0.79,16.37-5.36c0.52-4.5,0.08-9.06,0.21-13.58
		C655.9,257.8,648.74,255.93,643.05,259.66"/>
	<path style="clip-path:url(#SVGID_00000031172357152873194220000008478187978976585115_);fill:#010101;" d="M564.6,224.33
		c4.95,0,9.91,0.03,14.88-0.03c1.2,4.05,2.45,8.1,3.46,12.2l0.37,0.64c3.28,12.61,7.34,25,10.54,37.63
		c1.52-5.05,2.82-10.17,4.14-15.28c2.98-11.72,6.25-23.38,9.08-35.13c4.81-0.04,9.64-0.02,14.45-0.04
		c-6.9,23.48-14.17,46.86-21.21,70.31c-1.97,6.45-6.1,12.82-12.9,14.8c-5.65,1.41-11.85,1.35-17.44-0.39
		c0.73-3.2,1.32-6.43,2.18-9.6c3.93,0.63,8.22,1.39,11.96-0.46c4.56-2.69,4.87-8.51,6.33-13.05c-2.11-0.02-4.2-0.03-6.3-0.08
		C577.92,265.26,570.94,244.88,564.6,224.33"/>
</g>
</svg>
